<?xml version="1.0" encoding="utf-8"?>
<!-- Generator: Adobe Illustrator 21.0.2, SVG Export Plug-In . SVG Version: 6.00 Build 0)  -->
<svg version="1.1" id="Layer_1" xmlns="http://www.w3.org/2000/svg" xmlns:xlink="http://www.w3.org/1999/xlink" x="0px" y="0px"
	 viewBox="0 0 379.2 82.8" style="enable-background:new 0 0 379.2 82.8;" xml:space="preserve">
<style type="text/css">
	.st0{fill:#FFFFFF;}
</style>
<g>
	<path class="st0" d="M73.4,31.4l0.1-1l3.8,0.1l3.5-0.1l0.2,1l-2.5,0.4V44c0,3.9-1.6,6.5-7.6,7.9c-5.9,0-8-3.2-8-7.9V31.8l-2.7-0.4
		l0.1-1l4.1,0.1l4.1-0.1l0.2,1l-2.5,0.4v12.6c0,3.7,1.6,5.8,5,5.8c3.1,0,4.9-2.1,4.9-5.9V31.8L73.4,31.4z"/>
	<path class="st0" d="M85.1,51.3l-3.4,0.1l-0.2-1.1l2.1-0.3v-11l-2.1,0.2l-0.2-1.1l3.6-0.9l1.3-0.1l0.2,2.5l4.4-2.9
		c3.8,0,4.5,1.3,4.5,4.9v8.3l2.3,0.3l-0.2,1.1l-3.5-0.1l-2.9,0.1l-0.2-1.1l1.5-0.3v-8.6c0-1.6-0.7-2.2-2-2.2c-1,0-2.1,0.7-3.1,1.3
		l-0.9,0.6v8.9l1.6,0.3l-0.2,1.1L85.1,51.3z"/>
	<path class="st0" d="M111.3,47.5c0,1.2,0.2,1.7,0.5,2.2h1.7l0.1,1.1l-4,0.8l-0.9-2.3l-3.9,2.6c-3.8,0-6.2-2.8-6.2-7
		c0-4.9,3-7.4,7.3-8c0.6,0,1.9,0.5,2.5,0.8V32l-2.1,0.1l-0.1-1l3.6-0.9l1.5-0.1V47.5z M107.5,48.2l0.9-0.7v-8
		c-0.7-0.8-1.7-1.2-3-1.2c-2.4,0-3.9,2.2-3.9,5.7c0,3.3,1.3,5.4,3.1,5.4C105.4,49.4,106.5,49,107.5,48.2z"/>
	<path class="st0" d="M117.6,43.7c0,3.4,1.8,5.8,5,5.8c1.2,0,2.6-0.6,3.8-1.3l0.5,1.1c-1.4,1-3.3,1.8-5.2,2.4
		c-3.6,0-6.9-2.6-6.9-7.3c0-4.4,2.7-6.8,6.8-7.7c4,0,5.3,2.5,5.3,5.6v1.3H117.6z M123.6,42.2c0-2.3-0.5-3.9-2.8-3.9
		c-1.8,0-3,1.7-3.2,4.2L123.6,42.2z"/>
	<path class="st0" d="M133.1,41.2l3.4-4.2h2.4v3h-2.2c-0.7,0.2-2,1.1-2.8,2.1l-0.6,0.7V50l3.1,0.3l-0.1,1.1l-4.4-0.1l-3.4,0.1
		l-0.2-1.1l2.1-0.3v-11l-2.1,0.2l-0.1-1.1l3.6-0.9l1.2-0.1L133.1,41.2z"/>
	<path class="st0" d="M151.3,38.7l1.6-1.8h1.8v2.4h-1.8l-1,0.5c0.2,0.5,0.3,0.9,0.3,1.4c0,2.6-1.8,4.4-5.8,5.4c-0.4,0-0.8,0-1.2-0.1
		l-1.6,1.9c0,0.6,0.4,1,1.2,1h5.5c2.7,0,3.9,1.3,3.9,3.1c0,2.5-3.1,4.9-7.7,6.2c-4.3,0-6.5-1.3-6.5-4.1v-0.5l3.3-2.5
		c-2.1-0.8-2.2-1.7-2.2-3.1v-0.2l3-2.1c-1.9-0.7-3.1-2.1-3.1-4c0-2.6,1.7-4.3,5.8-5.4C148.7,36.8,150.4,37.5,151.3,38.7z
		 M144.4,51.8c-1.5,1.7-1.7,2.2-1.7,2.6c0,1.4,1.6,2.5,4.1,2.5c2.5,0,4.6-1.6,4.6-3.6c0-1.1-0.8-1.5-2.8-1.5H144.4z M146.3,38.2
		c-1.6,0-2.5,1.3-2.5,3.2c0,1.4,0.6,3.8,3.1,3.8c1.6,0,2.5-1.1,2.5-2.8C149.4,40.8,148.8,38.2,146.3,38.2z"/>
	<path class="st0" d="M160.6,41.2l3.4-4.2h2.4v3h-2.2c-0.7,0.2-2,1.1-2.8,2.1l-0.6,0.7V50l3.1,0.3l-0.1,1.1l-4.4-0.1l-3.4,0.1
		l-0.2-1.1l2.1-0.3v-11l-2.1,0.2l-0.1-1.1l3.6-0.9l1.2-0.1L160.6,41.2z"/>
	<path class="st0" d="M173.4,36.8c3.8,0,4.7,1,4.7,4.8v5.9c0,1.3,0.2,1.8,0.5,2.2h1.5l0.1,1l-3.9,0.8l-0.9-2.3l-3.6,2.6
		c-2.6,0-4.4-1.4-4.4-3.8c0-1.1,0.4-1.9,1-2.8l6.8-2.2v-1.5c0-1.8-0.2-2.9-1.8-2.9c-0.8,0-1.8,0.3-2.5,0.5l-0.5,2.4H168v-2.3
		L173.4,36.8z M175.3,44.2L171,46c-0.5,0.4-0.6,1-0.6,1.7c0,1.5,0.9,2.1,1.7,2.1c0.8,0,1.6-0.5,2-0.8l1.3-0.9V44.2z"/>
	<path class="st0" d="M193.9,47.5c0,1.2,0.2,1.7,0.5,2.2h1.7l0.1,1.1l-4,0.8l-0.9-2.3l-3.9,2.6c-3.8,0-6.2-2.8-6.2-7
		c0-4.9,3-7.4,7.3-8c0.6,0,1.9,0.5,2.5,0.8V32L189,32l-0.1-1l3.6-0.9l1.5-0.1V47.5z M190.2,48.2l0.9-0.7v-8c-0.7-0.8-1.7-1.2-3-1.2
		c-2.4,0-3.9,2.2-3.9,5.7c0,3.3,1.3,5.4,3.1,5.4C188.1,49.4,189.1,49,190.2,48.2z"/>
	<path class="st0" d="M210.6,47.5c0,1.3,0.2,1.8,0.4,2.2h1.5l0.1,1l-3.9,0.8l-0.8-2.4l-4.3,2.7c-4,0-4.6-1.4-4.6-4.9v-7.8l-2.1,0.1
		l-0.2-1.2l3.6-0.8l1.5-0.1v10c0,1.6,0.7,2.2,2.1,2.2c0.9,0,2.1-0.8,3.3-1.5l0.6-0.4v-8.4l-1.8,0.1l-0.1-1.2l3.3-0.8l1.5-0.1V47.5z"
		/>
	<path class="st0" d="M220.2,36.8c3.8,0,4.7,1,4.7,4.8v5.9c0,1.3,0.2,1.8,0.5,2.2h1.5l0.1,1l-3.9,0.8l-0.9-2.3l-3.6,2.6
		c-2.6,0-4.4-1.4-4.4-3.8c0-1.1,0.4-1.9,1-2.8l6.8-2.2v-1.5c0-1.8-0.1-2.9-1.8-2.9c-0.8,0-1.8,0.3-2.5,0.5l-0.5,2.4h-2.6v-2.3
		L220.2,36.8z M222.1,44.2l-4.4,1.8c-0.4,0.4-0.6,1-0.6,1.7c0,1.5,0.9,2.1,1.7,2.1c0.8,0,1.6-0.5,2-0.8l1.3-0.9V44.2z"/>
	<path class="st0" d="M227.2,39v-0.5l1.1-1h1.9v-2l2-1.9h0.8v4.1h4.5V39H233v8.8c0,0.9,0.3,1.8,1.6,1.8c0.9,0,1.5-0.3,2.4-0.7l0.5,1
		l-3.5,2c-3.4,0-3.8-1.2-3.8-3.9V39H227.2z"/>
	<path class="st0" d="M240.8,43.7c0,3.4,1.8,5.8,5,5.8c1.2,0,2.6-0.6,3.8-1.3l0.5,1.1c-1.4,1-3.3,1.8-5.2,2.4
		c-3.6,0-6.9-2.6-6.9-7.3c0-4.4,2.7-6.8,6.8-7.7c4,0,5.3,2.5,5.3,5.6v1.3H240.8z M246.9,42.2c0-2.3-0.5-3.9-2.8-3.9
		c-1.8,0-3,1.7-3.2,4.2L246.9,42.2z"/>
	<path class="st0" d="M265,41.7V50l2.5,0.4l-0.2,1.1l-4-0.1l-4.1,0.1l-0.1-1.1l2.7-0.4V31.8l-2.7-0.4l0.1-1l4.1,0.1l5.5-0.1
		c3.9,0,6.9,1.6,6.9,5.2c0,3.5-3.1,5.1-6.2,5.9l2.1,1.2l5.2,7.3l1.6,0.5l-0.1,1l-2.5-0.1l-2.1,0.1l-6.4-9.3l-0.4-0.3H265z M265,40.4
		h2.1c3.2,0,5.2-2,5.2-4.6c0-2.8-1.9-4.1-4.4-4.2l-3,0.2V40.4z"/>
	<path class="st0" d="M281.8,43.7c0,3.4,1.8,5.8,5,5.8c1.2,0,2.6-0.6,3.7-1.3l0.5,1.1c-1.4,1-3.3,1.8-5.2,2.4
		c-3.6,0-6.9-2.6-6.9-7.3c0-4.4,2.7-6.8,6.8-7.7c4,0,5.3,2.5,5.3,5.6v1.3H281.8z M287.8,42.2c0-2.3-0.4-3.9-2.8-3.9
		c-1.8,0-3,1.7-3.2,4.2L287.8,42.2z"/>
	<path class="st0" d="M301.1,39c-0.3-0.2-1.2-0.7-2.3-0.7c-1.2,0-2.3,0.6-2.3,1.8c0,1,0.8,1.6,2.1,2.2l2.3,1.2c2,1,2.8,2.2,2.8,3.9
		c0,2.7-2.2,3.7-5.6,4.5c-1.8,0-3.8-0.9-4.6-1.3l-0.6-3.4h1.9l1,2.5c0.6,0.4,1.5,0.8,2.5,0.8c1.6,0,2.4-1,2.4-2.3
		c0-1.2-0.6-1.7-2.2-2.5l-2.4-1.2c-1.3-0.7-2.5-1.8-2.5-3.5c0-2.1,2-3.3,5.4-4c1.6,0,3.4,0.7,4.2,1.4v3h-1.6L301.1,39z"/>
	<path class="st0" d="M308.7,43.7c0,3.4,1.8,5.8,5,5.8c1.2,0,2.6-0.6,3.7-1.3l0.5,1.1c-1.4,1-3.3,1.8-5.2,2.4
		c-3.6,0-6.9-2.6-6.9-7.3c0-4.4,2.7-6.8,6.8-7.7c4,0,5.3,2.5,5.3,5.6v1.3H308.7z M314.8,42.2c0-2.3-0.4-3.9-2.8-3.9
		c-1.8,0-3,1.7-3.2,4.2L314.8,42.2z"/>
	<path class="st0" d="M325.8,36.8c3.8,0,4.7,1,4.7,4.8v5.9c0,1.3,0.2,1.8,0.5,2.2h1.5l0.1,1l-3.9,0.8l-0.9-2.3l-3.6,2.6
		c-2.6,0-4.4-1.4-4.4-3.8c0-1.1,0.4-1.9,1-2.8l6.8-2.2v-1.5c0-1.8-0.1-2.9-1.8-2.9c-0.8,0-1.8,0.3-2.5,0.5l-0.5,2.4h-2.6v-2.3
		L325.8,36.8z M327.7,44.2l-4.3,1.8c-0.4,0.4-0.6,1-0.6,1.7c0,1.5,0.9,2.1,1.7,2.1c0.8,0,1.6-0.5,1.9-0.8l1.3-0.9V44.2z"/>
	<path class="st0" d="M338.6,41.2L342,37h2.4v3h-2.2c-0.7,0.2-2,1.1-2.8,2.1l-0.6,0.7V50l3.1,0.3l-0.1,1.1l-4.4-0.1l-3.4,0.1
		l-0.2-1.1l2.1-0.3v-11l-2.1,0.2l-0.1-1.1l3.6-0.9l1.2-0.1L338.6,41.2z"/>
	<path class="st0" d="M354.1,38.9c-0.5-0.4-0.9-0.5-1.7-0.5c-2,0-3.6,2.3-3.6,5.6c0,3.2,1.7,5.6,4.7,5.6c1.1,0,2.3-0.6,3.4-1.3
		l0.5,1.1c-1.4,1-2.9,1.7-4.9,2.4c-3.8,0-6.7-2.5-6.7-7.1c0-4.7,3.5-7,7.1-7.9c1.4,0,3.2,0.7,4.1,1.5v3h-2.2L354.1,38.9z"/>
	<path class="st0" d="M363.7,50.1l1.6,0.3l-0.1,1.1l-2.9-0.1l-3.4,0.1l-0.2-1.1l2.1-0.3V32l-2.1,0.1l-0.1-1l3.6-0.9l1.5-0.1v9.7
		l4.4-2.8c3.8,0,4.5,1.4,4.5,5.2v8l2.2,0.3l-0.2,1.1l-3.5-0.1l-2.8,0.1l-0.2-1.1l1.5-0.3v-8.6c0-1.6-0.7-2.2-1.9-2.2
		c-0.9,0-2.1,0.7-3.2,1.3l-0.9,0.6V50.1z"/>
	<path class="st0" d="M69.8,64.9h-1.1L68.6,63C68.1,62.5,67.1,62,66,62c-1.5,0.5-2.1,1.2-2.1,2.2c0,1.2,0.7,1.8,1.6,2.5l1.8,1.4
		c0.9,0.7,1.9,1.6,1.9,3.4c0,1.6-1.1,2.9-2.8,3.5l-2,0.7c-1.9,0-3.4-0.6-4.3-1.3l0.5-2.8h1.3v1.7c0.5,0.6,1.9,1.5,3.1,1.5
		c1.5-0.4,2.2-1.4,2.2-2.6c0-1.4-0.6-2-1.6-2.7l-2-1.6c-1-0.7-1.6-1.6-1.6-3c0-1.5,1-2.6,3-3.3l1.8-0.7c1.8,0,3,0.5,3.7,1L69.8,64.9
		z"/>
	<path class="st0" d="M76.7,72.9l0.4,0.5c-0.6,0.5-1.6,1.2-2.6,1.8l-0.8,0.5c-1.8,0-3.3-1.4-3.3-3.9c0-2.5,1.5-4.6,4.1-5.7l1.1-0.4
		c0.5,0,1.6,0.4,2.2,0.7l-1,1.6c-0.7-0.5-1.6-1-2.2-1.2c-1.4,0.8-2.2,2.4-2.2,4.4c0,1.9,1,2.8,2.1,3C75,73.9,76.2,73.3,76.7,72.9z"
		/>
	<path class="st0" d="M80.1,75.4h-1.7l2.3-13.1l-1.9,0.5l-0.2-0.6l3.5-1.1l0.5,0.5l-1,5.7l-0.3,0.6l3.4-2.2c1.6,0,2.1,1.1,1.9,2.2
		l-1.1,6.3l1.7-1l0.3,0.5l-2.8,2l-1-0.6l1.1-6.4c0.1-0.8,0.1-1.3-0.6-1.3c-0.6,0-1.4,0.4-1.9,0.8l-1,0.7L80.1,75.4z"/>
	<path class="st0" d="M96.4,69.7c0,2.4-1.4,4.7-3.9,5.6l-1.2,0.5c-1.7,0-3.3-1.4-3.3-4c0-2.4,1.4-4.7,3.9-5.6l1.2-0.5
		C94.8,65.7,96.4,67.1,96.4,69.7z M89.9,71.4c0,2.2,1,3.1,2.1,3.3c1.8-0.6,2.4-3.1,2.4-4.8c0-2.2-1.1-3.1-2.2-3.3
		C90.4,67.2,89.9,69.7,89.9,71.4z"/>
	<path class="st0" d="M105.8,69.7c0,2.4-1.4,4.7-3.9,5.6l-1.2,0.5c-1.7,0-3.3-1.4-3.3-4c0-2.4,1.4-4.7,3.9-5.6l1.2-0.5
		C104.3,65.7,105.8,67.1,105.8,69.7z M99.4,71.4c0,2.2,1,3.1,2.1,3.3c1.8-0.6,2.4-3.1,2.4-4.8c0-2.2-1.1-3.1-2.2-3.3
		C99.9,67.2,99.4,69.7,99.4,71.4z"/>
	<path class="st0" d="M107,62.8l-0.2-0.6l3.5-1.1l0.5,0.5l-2.2,12.6l1.7-1l0.3,0.5l-2.8,2l-1-0.6l2.3-12.8L107,62.8z"/>
	<path class="st0" d="M124.9,69.7c0,2.4-1.4,4.7-3.9,5.6l-1.2,0.5c-1.7,0-3.3-1.4-3.3-4c0-2.4,1.4-4.7,3.9-5.6l1.2-0.5
		C123.4,65.7,124.9,67.1,124.9,69.7z M118.5,71.4c0,2.2,1,3.1,2.1,3.3c1.8-0.6,2.4-3.1,2.4-4.8c0-2.2-1.1-3.1-2.2-3.3
		C119,67.2,118.5,69.7,118.5,71.4z"/>
	<path class="st0" d="M125.3,78.4c0.4-0.5,0.7-1.2,0.8-1.7l1.7-9.6h-1.9l0.1-0.4l0.7-0.7h1.3l0.2-1.1c0.2-1.1,0.6-1.9,1.3-2.4
		l2.5-1.6h1.6l-0.3,1.6h-2.5c-0.5,0.4-0.8,1.2-0.9,1.7l-0.3,1.8h2.3l-0.2,1h-2.2l-1.5,8.9c-0.2,1-0.6,1.9-1.3,2.4l-2.5,1.6h-1.4
		l0.3-1.6H125.3z"/>
	<path class="st0" d="M148.5,70.7c-0.4,2.3-1.2,3.9-4.3,4.7l-1.4,0.4c-3.3,0-4.3-2-3.8-5.2l1.3-8.2l-1.7-0.3l0.2-0.7l2.7,0.1
		l2.7-0.1V62l-1.8,0.3l-1.4,8.6c-0.3,1.9,0.6,3.8,3,3.8c1.6-0.6,2.6-1.4,3-4l1.3-8.4l-1.7-0.3l0.2-0.7l2.3,0.1l2.5-0.1V62l-1.8,0.3
		L148.5,70.7z"/>
	<path class="st0" d="M157.4,68.6c0.1-0.8,0.1-1.3-0.6-1.3c-0.6,0-1.4,0.4-1.9,0.8l-1,0.7l-1.2,6.7H151l1.5-8.3l-1.9,0.7l-0.2-0.6
		l3.3-1.5l0.6,0.6l-0.2,1l-0.3,0.6l3.4-2.2c1.6,0,2.1,1.1,1.9,2.2l-1.1,6.3l1.7-1l0.3,0.5l-2.8,2l-1-0.6L157.4,68.6z"/>
	<path class="st0" d="M165.7,75l0.2-1.2l0.4-0.9l-2.9,2.7c-1.4-0.3-2.7-1.2-2.7-3.8c0-2.4,1.1-4.5,3.5-5.6l1.3-0.6
		c0.4,0,1.1,0.2,1.8,0.4l0.7-3.8l-1.9,0.5l-0.2-0.6l3.5-1.1l0.5,0.5l-2.2,12.6l1.7-1l0.3,0.5l-2.8,2L165.7,75z M163.9,74.2l2.3-1.9
		l0.8-4.8c-0.5-0.4-1.9-0.6-2.5-0.6c-1.2,0.9-1.9,2.8-1.9,4.7C162.6,73.1,163.2,73.9,163.9,74.2z"/>
	<path class="st0" d="M176.8,72.9l0.4,0.5c-0.5,0.4-1.6,1.2-2.6,1.8l-0.8,0.5c-2,0-3.3-1.5-3.3-3.7c0-2.5,1.4-4.9,4-5.9l1.1-0.4
		c1.3,0.2,2.2,0.7,2.2,2.1c0,0.5-0.1,1-0.4,1.7l-5,1.6c0,0.2,0,0.4,0,0.5c0,1.8,1.1,2.6,2.1,2.6C175.2,73.9,176.1,73.4,176.8,72.9z
		 M172.5,70.4l3.3-1.3c0.1-0.4,0.2-0.7,0.2-1.1c0-0.9-0.5-1.2-1.1-1.3C173.4,67.2,172.8,68.8,172.5,70.4z"/>
	<path class="st0" d="M182.3,67.9l-0.6,2.2l2.7-4.1h1.6l-0.4,1.8h-0.9c-0.5,0.3-1.3,1.1-1.9,1.8l-0.8,1l-0.9,4.9h-1.7l1.5-8.3
		l-1.9,0.7l-0.2-0.6l3.3-1.5l0.5,0.5L182.3,67.9z"/>
	<path class="st0" d="M185.9,80.1l0.3-1.6h3.7c0.6-0.4,1.3-1.4,1.5-2.6l0.3-2L192,73l-2.8,2.7c-1.4-0.3-2.7-1.2-2.7-3.8
		c0-2.4,1.1-4.5,3.5-5.6l1.3-0.6c0.8,0,2.3,0.4,3.4,0.9l-1.7,9.7c-0.2,0.9-1,1.6-2.2,2.5l-1.7,1.3H185.9z M189.6,74.2l2.3-1.8
		l0.9-4.8c-0.5-0.4-1.7-0.7-2.5-0.7c-1.2,0.9-1.9,2.8-1.9,4.7C188.3,73.1,189,73.9,189.6,74.2z"/>
	<path class="st0" d="M199.3,67.9l-0.6,2.2l2.7-4.1h1.6l-0.4,1.8h-0.9c-0.5,0.3-1.3,1.1-1.9,1.8l-0.8,1l-0.9,4.9h-1.7l1.5-8.3
		l-1.9,0.7l-0.2-0.6l3.3-1.5l0.5,0.5L199.3,67.9z"/>
	<path class="st0" d="M210.5,74.2l1.7-1l0.3,0.5l-2.8,2l-1-0.6l0.2-1.2l0.3-0.9l-2.8,2.7c-1.3-0.3-2.6-1.2-2.6-3.8
		c0-2.6,1.3-4.5,3.7-5.6l1.2-0.6c0.7,0,2.2,0.4,3.2,0.8L210.5,74.2z M207,74.2l2.2-1.8l0.9-4.9c-0.5-0.4-1.7-0.6-2.4-0.6
		c-1,0.8-2,2.4-2,4.7C205.6,72.9,206.3,73.8,207,74.2z"/>
	<path class="st0" d="M218.2,75l0.2-1.2l0.4-0.9l-2.9,2.7c-1.4-0.3-2.7-1.2-2.7-3.8c0-2.4,1.1-4.5,3.5-5.6l1.3-0.6
		c0.4,0,1.1,0.2,1.8,0.4l0.7-3.8l-1.9,0.5l-0.2-0.6l3.5-1.1l0.5,0.5l-2.2,12.6l1.7-1l0.3,0.5l-2.8,2L218.2,75z M216.4,74.2l2.3-1.9
		l0.8-4.8c-0.5-0.4-1.9-0.6-2.5-0.6c-1.2,0.9-1.9,2.8-1.9,4.7C215.1,73.1,215.7,73.9,216.4,74.2z"/>
	<path class="st0" d="M223,67.7l-0.2-0.6l3.3-1.5l0.6,0.6l-1.1,6.5c-0.2,0.9,0.1,1.3,0.6,1.3c0.6,0,1.4-0.6,1.9-0.9l0.9-0.6l1.1-6.6
		h1.7l-1.4,8.2l1.7-1l0.3,0.5l-2.8,2l-0.9-0.6l0.2-1.2l0.3-0.6l-3.4,2.3c-1.6,0-2.1-1.3-1.9-2.3l1.1-6.4L223,67.7z"/>
	<path class="st0" d="M240.1,74.2l1.7-1l0.3,0.5l-2.8,2l-1-0.6l0.2-1.2l0.3-0.9l-2.8,2.7c-1.3-0.3-2.6-1.2-2.6-3.8
		c0-2.6,1.3-4.5,3.7-5.6l1.2-0.6c0.7,0,2.2,0.4,3.2,0.8L240.1,74.2z M236.6,74.2l2.2-1.8l0.9-4.9c-0.5-0.4-1.7-0.6-2.4-0.6
		c-1,0.8-2,2.4-2,4.7C235.3,72.9,236,73.8,236.6,74.2z"/>
	<path class="st0" d="M245.4,74.2l2.6-1.1l0.3,0.5l-3.8,2l-1-0.6l1.4-7.9H243l0.1-0.3l0.7-0.7h1.2l0.3-1.4l1.4-1.3h0.5l-0.5,2.8h2.5
		l-0.2,0.9h-2.5L245.4,74.2z"/>
	<path class="st0" d="M255.6,72.9l0.4,0.5c-0.5,0.4-1.6,1.2-2.6,1.8l-0.8,0.5c-2,0-3.3-1.5-3.3-3.7c0-2.5,1.4-4.9,4-5.9l1.1-0.4
		c1.3,0.2,2.2,0.7,2.2,2.1c0,0.5-0.1,1-0.4,1.7l-5,1.6c0,0.2,0,0.4,0,0.5c0,1.8,1.1,2.6,2.1,2.6C254,73.9,254.9,73.4,255.6,72.9z
		 M251.3,70.4l3.3-1.3c0.1-0.4,0.2-0.7,0.2-1.1c0-0.9-0.5-1.2-1.1-1.3C252.2,67.2,251.6,68.8,251.3,70.4z"/>
	<path class="st0" d="M271.9,64.9h-1.1l-0.1-1.8c-0.5-0.5-1.6-1.1-2.6-1.1c-1.5,0.5-2.1,1.2-2.1,2.2c0,1.2,0.7,1.8,1.6,2.5l1.8,1.4
		c0.9,0.7,1.9,1.6,1.9,3.4c0,1.6-1.1,2.9-2.8,3.5l-2,0.7c-1.9,0-3.4-0.6-4.3-1.3l0.5-2.8h1.3v1.7c0.5,0.6,1.9,1.5,3.1,1.5
		c1.5-0.4,2.2-1.4,2.2-2.6c0-1.4-0.6-2-1.6-2.7l-2-1.6c-1-0.7-1.6-1.6-1.6-3c0-1.5,1-2.6,3-3.3l1.8-0.7c1.8,0,3,0.5,3.7,1
		L271.9,64.9z"/>
	<path class="st0" d="M275.1,74.2l2.6-1.1l0.3,0.5l-3.8,2l-1-0.6l1.4-7.9h-1.9l0.1-0.3l0.7-0.7h1.2l0.3-1.4l1.4-1.3h0.5l-0.5,2.8
		h2.5l-0.2,0.9h-2.5L275.1,74.2z"/>
	<path class="st0" d="M279.7,67.7l-0.2-0.6l3.3-1.5l0.6,0.6l-1.1,6.5c-0.2,0.9,0.1,1.3,0.6,1.3c0.6,0,1.4-0.6,1.9-0.9l0.9-0.6
		l1.1-6.6h1.7l-1.4,8.2l1.7-1l0.3,0.5l-2.8,2l-0.9-0.6l0.2-1.2l0.3-0.6l-3.4,2.3c-1.6,0-2.1-1.3-1.9-2.3l1.1-6.4L279.7,67.7z"/>
	<path class="st0" d="M294.6,75l0.2-1.2l0.4-0.9l-2.9,2.7c-1.4-0.3-2.7-1.2-2.7-3.8c0-2.4,1.1-4.5,3.5-5.6l1.3-0.6
		c0.4,0,1.1,0.2,1.8,0.4l0.7-3.8l-1.9,0.5l-0.2-0.6l3.5-1.1l0.5,0.5l-2.2,12.6l1.7-1l0.3,0.5l-2.8,2L294.6,75z M292.8,74.2l2.3-1.9
		l0.8-4.8c-0.5-0.4-1.9-0.6-2.5-0.6c-1.2,0.9-1.9,2.8-1.9,4.7C291.5,73.1,292.1,73.9,292.8,74.2z"/>
	<path class="st0" d="M299.5,67.7l-0.2-0.6l3.3-1.5l0.6,0.6l-1.4,7.9l1.7-1l0.3,0.5l-2.8,2l-1-0.6l1.4-8L299.5,67.7z M302.3,61.6
		l0.6-0.1l1.1,0.1v1l-0.3,0.9l-0.5,0.1l-1.3-0.1l0.1-1L302.3,61.6z"/>
	<path class="st0" d="M311.1,72.9l0.4,0.5c-0.5,0.4-1.6,1.2-2.6,1.8l-0.8,0.5c-2,0-3.3-1.5-3.3-3.7c0-2.5,1.4-4.9,4-5.9l1.1-0.4
		c1.3,0.2,2.2,0.7,2.2,2.1c0,0.5-0.1,1-0.4,1.7l-5,1.6c0,0.2,0,0.4,0,0.5c0,1.8,1.1,2.6,2.1,2.6C309.4,73.9,310.4,73.4,311.1,72.9z
		 M306.7,70.4l3.3-1.3c0.1-0.4,0.2-0.7,0.2-1.1c0-0.9-0.5-1.2-1.1-1.3C307.7,67.2,307,68.8,306.7,70.4z"/>
	<path class="st0" d="M314.6,75.7c-0.6-0.2-2-0.9-2.4-1.2l1-1.4c0.6,0.4,1.9,1.1,2.5,1.5c0.7-0.2,1-0.6,1-1.3c0-0.4-0.1-0.9-0.6-1.3
		l-1.7-1.6c-0.5-0.4-0.8-1.1-0.8-1.8c0-1.1,0.8-1.8,2.6-2.5l1.1-0.4c0.5,0.1,1.7,0.7,2.2,0.9l-0.9,1.4c-0.6-0.4-1.7-1-2.3-1.3
		c-0.6,0.2-0.9,0.6-0.9,1.2c0,0.5,0.2,0.9,0.7,1.4l1.6,1.4c0.6,0.6,0.9,1.1,0.9,1.9c0,1.1-0.5,1.9-2.1,2.4L314.6,75.7z"/>
</g>
<g>
	<g>
		<polygon class="st0" points="26.1,22.7 26.1,22.7 26.1,22.6 26.1,22.6 26.1,22.7 		"/>
		<path class="st0" d="M31.5,18.1c-1.1-0.2-2.2-0.3-3.2-0.3c-0.5,0-1,0.1-1.4,0.1l-0.2-6.4v-1.1c0.4-0.2,1-0.3,1.7-0.3
			c0.9,0,1.9,0.1,3,0.3c0.9,0.1,1.9,0.3,2.9,0.3l0.3,7.6C33.6,18.4,32.5,18.3,31.5,18.1L31.5,18.1z M20.7,18.1c-1,0.2-2,0.3-3.1,0.4
			l0.3-7.6c1-0.1,2-0.2,2.9-0.3c1.1-0.2,2.1-0.3,3-0.3c0.7,0,1.2,0.1,1.7,0.3v1.1l-0.2,6.4c-0.4-0.1-0.9-0.1-1.4-0.1
			C22.9,17.8,21.8,17.9,20.7,18.1L20.7,18.1z M36.8,13.6v-1.4h-0.9V9.7h-0.6c-1.3,0-2.5-0.2-3.8-0.4C30.4,9.2,29.4,9,28.4,9
			c-0.9,0-1.7,0.1-2.3,0.4C25.5,9.2,24.7,9,23.8,9c-1,0-2,0.2-3.2,0.3c-1.2,0.2-2.5,0.4-3.8,0.4h-0.6v2.5h-0.9v1.4h0.9v2h-0.9V17
			h0.9v2.7h0.6c1.4,0,2.7-0.2,4-0.4c1.1-0.2,2.1-0.3,3-0.3c0.7,0,1.2,0.1,1.7,0.3v0h1.2v0c0.4-0.2,0.9-0.3,1.7-0.3
			c0.9,0,1.9,0.2,3,0.3c1.3,0.2,2.6,0.4,4,0.4h0.6V17h0.9v-1.4h-0.9v-2H36.8L36.8,13.6z"/>
		<path class="st0" d="M20.8,11.6c-0.1,0-0.1,0-0.2,0c-0.6,0.1-1.1,0.2-1.7,0.2l0,1c0.6-0.1,1.3-0.2,1.9-0.3c0,0,0,0,0,0V11.6
			L20.8,11.6z"/>
		<path class="st0" d="M21.6,11.5v1c1-0.1,2-0.2,2.8-0.2l0-1C23.5,11.3,22.6,11.4,21.6,11.5L21.6,11.5z"/>
		<path class="st0" d="M20.8,16c-0.1,0-0.1,0-0.2,0c-0.6,0.1-1.2,0.2-1.9,0.3l0,1c0.7-0.1,1.4-0.2,2.1-0.3c0,0,0,0,0,0V16L20.8,16z"
			/>
		<path class="st0" d="M21.6,15.9v1c1-0.1,1.8-0.2,2.6-0.2l0-1C23.4,15.7,22.5,15.8,21.6,15.9L21.6,15.9z"/>
		<path class="st0" d="M20.7,13.9v1c0,0,0.1,0,0.1,0c1.3-0.2,2.5-0.4,3.5-0.3l0-1C23.2,13.5,22,13.7,20.7,13.9L20.7,13.9z"/>
		<path class="st0" d="M20,14c-0.4,0.1-0.7,0.1-1.1,0.1l0,1c0.4,0,0.8-0.1,1.1-0.1V14L20,14z"/>
		<path class="st0" d="M30.2,11.5c-0.8-0.1-1.6-0.2-2.4-0.1l0,1c0.7-0.1,1.5,0,2.3,0.1V11.5L30.2,11.5z"/>
		<path class="st0" d="M33.3,11.9c-0.6-0.1-1.2-0.2-1.7-0.2c-0.2,0-0.4-0.1-0.6-0.1v1c0.2,0,0.3,0,0.5,0.1c0.6,0.1,1.3,0.2,1.9,0.3
			L33.3,11.9L33.3,11.9z"/>
		<path class="st0" d="M30,13.7c-0.7-0.1-1.4-0.1-2.1-0.1l0,1c0.6,0,1.3,0,2.1,0.1V13.7L30,13.7z"/>
		<path class="st0" d="M33.3,14.1c-0.6-0.1-1.2-0.2-1.8-0.2c-0.3,0-0.5-0.1-0.8-0.1v1c0.2,0,0.4,0.1,0.7,0.1c0.6,0.1,1.3,0.2,2,0.3
			L33.3,14.1L33.3,14.1z"/>
		<path class="st0" d="M31.4,17c0.7,0.1,1.3,0.2,2,0.3l0-1c-0.6-0.1-1.3-0.2-1.9-0.3c0,0-0.1,0-0.1,0V17L31.4,17z"/>
		<path class="st0" d="M30.7,15.9c-1-0.1-1.9-0.2-2.7-0.2l0,1c0.8,0,1.7,0.1,2.7,0.2V15.9L30.7,15.9z"/>
		<path class="st0" d="M24.8,31.5l1.3-3.1l1.3,3.1l3.4,0.2l-2.6,2.2l0.8,3.3l-2.9-1.8l-2.9,1.8l0.8-3.3l-2.6-2.2L24.8,31.5
			L24.8,31.5z M17.2,30.4L17.2,30.4l5.4,4l-2.1,6.5c0,0,0,0,0,0c0,0,0,0,0,0l5.5-4l5.5,4c0,0,0,0,0,0c0,0,0,0,0-0.1l-2.1-6.4l5.4-4
			v0c0,0,0,0,0-0.1c0,0,0,0-0.1,0v0h-6.7l-2.1-6.4h0c0,0,0,0,0,0s0,0,0,0h0L24,30.3L17.2,30.4L17.2,30.4
			C17.2,30.3,17.2,30.3,17.2,30.4C17.2,30.4,17.2,30.4,17.2,30.4L17.2,30.4z"/>
		<path class="st0" d="M39.6,38.5c-0.5,0.5-1.1,0.9-1.8,1.1c0.1-0.7,0.4-1.4,0.9-1.9c0.5-0.5,1.1-0.9,1.8-1.1
			C40.4,37.3,40.1,37.9,39.6,38.5L39.6,38.5z M37,34.2c-0.1-0.7,0-1.5,0.4-2.1c0.5,0.5,0.8,1.2,0.9,1.9c0.1,0.7,0,1.5-0.4,2.1
			C37.4,35.6,37.1,35,37,34.2L37,34.2z M38.4,28.7c-0.1-0.7-0.1-1.5,0.2-2.1c0.5,0.5,0.9,1.2,1,1.9c0.1,0.7,0.1,1.5-0.2,2.1
			C38.9,30.1,38.6,29.4,38.4,28.7L38.4,28.7z M41.9,30.3c0.1,0.7-0.1,1.4-0.5,2.1c-0.4,0.6-0.9,1.1-1.6,1.4
			c-0.1-0.7,0.1-1.4,0.5-2.1C40.7,31.1,41.3,30.7,41.9,30.3L41.9,30.3z M36.6,44c-0.6,0.4-1.3,0.7-2,0.7c0.2-0.7,0.7-1.3,1.3-1.7
			c0.6-0.4,1.3-0.7,2-0.7C37.6,43,37.2,43.6,36.6,44L36.6,44z M34.9,39.3c0.1-0.7,0.3-1.4,0.8-2c0.4,0.6,0.5,1.4,0.5,2.1
			c-0.1,0.7-0.3,1.4-0.8,2C35,40.8,34.8,40.1,34.9,39.3L34.9,39.3z M33,44.2c-0.2,0.7-0.6,1.3-1.2,1.8c-0.2-0.7-0.2-1.4,0-2.1
			c0.2-0.7,0.6-1.3,1.2-1.8C33.2,42.8,33.2,43.5,33,44.2L33,44.2z M34.1,47.4c-0.4,0.6-0.9,1.1-1.6,1.4c-0.5,0.2-1,0.3-1.5,0.3l0,0
			c-0.2,0-0.4,0-0.6-0.1c0.4-0.6,0.9-1.1,1.6-1.4C32.6,47.4,33.4,47.3,34.1,47.4L34.1,47.4z M27.8,47.7c0.4-0.6,0.9-1.2,1.5-1.5
			c0.1,0.7-0.1,1.4-0.4,2.1c-0.3,0.6-0.9,1.2-1.5,1.5C27.3,49.1,27.5,48.4,27.8,47.7L27.8,47.7z M19.7,48.8
			c-0.7-0.3-1.2-0.8-1.6-1.4c0.7-0.1,1.4,0,2.1,0.3c0.7,0.3,1.2,0.8,1.6,1.4C21.1,49.2,20.3,49.1,19.7,48.8L19.7,48.8z M19.2,44.2
			c-0.2-0.7-0.2-1.4,0-2.1c0.6,0.5,1,1.1,1.2,1.8c0.2,0.7,0.2,1.4,0,2.1C19.8,45.6,19.4,44.9,19.2,44.2L19.2,44.2z M22.8,46.2
			c0.6,0.3,1.2,0.9,1.5,1.5c0.3,0.6,0.5,1.4,0.4,2.1c-0.6-0.3-1.2-0.9-1.5-1.5C22.9,47.7,22.7,46.9,22.8,46.2L22.8,46.2z M15.5,44
			c-0.6-0.4-1-1-1.3-1.7c0.7,0,1.4,0.3,2,0.7c0.6,0.4,1,1,1.3,1.7C16.8,44.7,16.1,44.5,15.5,44L15.5,44z M16.5,37.4
			c0.5,0.6,0.7,1.3,0.8,2c0.1,0.7-0.1,1.5-0.5,2.1c-0.5-0.6-0.7-1.3-0.8-2C15.9,38.7,16.1,38,16.5,37.4L16.5,37.4z M12.5,38.5
			c-0.5-0.5-0.8-1.2-0.9-1.9c0.7,0.2,1.3,0.5,1.8,1.1c0.5,0.5,0.8,1.2,0.9,1.9C13.6,39.4,13,39,12.5,38.5L12.5,38.5z M12.3,33.9
			c-0.7-0.3-1.2-0.8-1.6-1.4c-0.4-0.6-0.5-1.4-0.5-2.1c0.7,0.3,1.2,0.8,1.6,1.4C12.2,32.4,12.3,33.1,12.3,33.9L12.3,33.9z
			 M12.5,28.5c0.1-0.7,0.5-1.4,1-1.9c0.3,0.7,0.4,1.4,0.2,2.1c-0.1,0.7-0.5,1.4-1,1.9C12.4,29.9,12.3,29.2,12.5,28.5L12.5,28.5z
			 M13.9,34.1c0.1-0.7,0.4-1.4,0.9-1.9c0.3,0.6,0.5,1.4,0.4,2.1c-0.1,0.7-0.4,1.4-0.9,1.9C13.9,35.5,13.8,34.8,13.9,34.1L13.9,34.1z
			 M39.6,35c1.1-0.3,2.1-1.1,2.7-2.1c0.6-1,0.8-2.2,0.5-3.3l-0.1-0.5l-0.5,0.1c-0.6,0.2-1.1,0.4-1.5,0.8c0.1-0.6,0.1-1.1,0-1.7
			c-0.2-1.1-0.9-2.2-1.8-2.8l-0.4-0.3l-0.3,0.4c-0.6,1-0.8,2.2-0.6,3.3c0.2,1.1,0.9,2.1,1.8,2.8c-0.2,0.4-0.3,0.8-0.3,1.2
			c-0.3-0.8-0.8-1.4-1.4-2l-0.4-0.3l-0.3,0.4c-0.7,0.9-1,2.1-0.8,3.3c0.2,1.2,0.7,2.2,1.6,3l0,0c-0.3,0.4-0.5,0.8-0.6,1.2
			c-0.1-0.8-0.4-1.6-1-2.2l-0.3-0.4l-0.4,0.4c-0.9,0.8-1.4,1.9-1.5,3c-0.1,1.2,0.3,2.3,1,3.2l0,0c-0.3,0.3-0.6,0.6-0.9,1
			c0.1-0.8-0.1-1.6-0.5-2.4l-0.2-0.5L32.9,41c-1,0.6-1.7,1.5-2.1,2.7c-0.3,1.1-0.2,2.3,0.3,3.4l0,0c-0.4,0.2-0.7,0.5-1,0.8
			c0.2-0.8,0.2-1.6,0-2.4L30,44.9l-0.5,0.2c-1.1,0.4-2,1.1-2.6,2.2c-0.5,1-0.7,2.1-0.4,3.2c-0.1,0.1-0.3,0.2-0.5,0.3
			c-0.2-0.1-0.3-0.2-0.5-0.3c0.3-1.1,0.1-2.2-0.4-3.2c-0.6-1-1.5-1.8-2.6-2.2l-0.5-0.2L22,45.4c-0.2,0.8-0.2,1.6,0,2.4
			c-0.3-0.3-0.7-0.6-1-0.8l0,0c0.5-1,0.6-2.2,0.3-3.4c-0.3-1.1-1.1-2.1-2.1-2.7l-0.4-0.3l-0.2,0.5c-0.4,0.7-0.5,1.6-0.5,2.4
			c-0.2-0.4-0.5-0.7-0.9-1l0,0c0.7-0.9,1.1-2.1,1-3.2c-0.1-1.2-0.6-2.2-1.5-3l-0.4-0.4L16,36.3c-0.5,0.6-0.8,1.4-1,2.2
			c-0.1-0.4-0.4-0.8-0.6-1.2l0,0c0.9-0.7,1.5-1.8,1.6-3c0.1-1.2-0.1-2.3-0.8-3.3L15,30.7L14.6,31c-0.6,0.5-1.1,1.2-1.4,2
			c-0.1-0.4-0.2-0.8-0.4-1.2c0.9-0.7,1.6-1.7,1.8-2.8c0.2-1.2,0-2.3-0.6-3.3l-0.3-0.4l-0.4,0.3c-0.9,0.7-1.6,1.7-1.8,2.8
			c-0.1,0.6-0.1,1.1,0,1.7c-0.5-0.4-1-0.6-1.5-0.8l-0.5-0.1l-0.1,0.5c-0.3,1.1-0.1,2.3,0.5,3.3c0.6,1,1.5,1.7,2.7,2.1l0.4,0.1
			c0,0.4,0.1,0.7,0.3,1.1c-0.6-0.4-1.3-0.6-2.1-0.7l-0.5,0l0,0.5c0,1.2,0.4,2.3,1.2,3.2c0.8,0.9,1.9,1.4,3,1.5l0.5,0
			c0.1,0.4,0.3,0.7,0.5,1c-0.5-0.2-1-0.3-1.6-0.3c-0.2,0-0.4,0-0.6,0l-0.5,0.1l0.1,0.5c0.2,1.2,0.9,2.2,1.8,2.8
			c0.8,0.6,1.7,0.9,2.7,0.9c0.2,0,0.4,0,0.6,0l0.5-0.1c0.2,0.3,0.4,0.6,0.7,0.9c-0.7-0.1-1.5,0-2.2,0.2l-0.5,0.2l0.2,0.5
			c0.5,1.1,1.3,1.9,2.4,2.4c0.6,0.3,1.2,0.4,1.9,0.4c0.5,0,1-0.1,1.5-0.3l0.4-0.1c0.6,0.5,1.3,1,2.2,1.7c-0.4,0.3-0.9,0.6-1.4,0.9
			l0.9,0.6c0.5-0.3,1-0.6,1.4-0.9c0.4,0.3,0.9,0.6,1.4,0.9l0.9-0.6c-0.5-0.3-1-0.6-1.4-0.9c0.9-0.6,1.6-1.1,2.2-1.7l0.4,0.1
			c0.5,0.2,1,0.3,1.5,0.3l0,0c0.6,0,1.3-0.1,1.9-0.4c1.1-0.5,1.9-1.3,2.4-2.4l0.2-0.5l-0.5-0.2c-0.7-0.2-1.5-0.3-2.2-0.2
			c0.3-0.3,0.5-0.6,0.7-0.9l0.5,0.1c0.2,0,0.4,0,0.6,0c0,0,0,0,0,0c1,0,1.9-0.3,2.7-0.9c0.9-0.7,1.6-1.7,1.8-2.8l0.1-0.5l-0.5-0.1
			c-0.2,0-0.4,0-0.6,0c-0.6,0-1.1,0.1-1.6,0.3c0.2-0.3,0.4-0.6,0.5-1l0.5,0c1.2-0.1,2.2-0.6,3-1.5c0.8-0.9,1.2-2,1.2-3.2l0-0.5
			l-0.5,0c-0.7,0.1-1.5,0.3-2.1,0.7c0.1-0.3,0.2-0.7,0.3-1.1L39.6,35L39.6,35z"/>
		<path class="st0" d="M39.7,45.2c-1,1.4-2.1,2.8-3.5,4.1c-4.2,3.8-8.9,6-10.2,6.5c-1.3-0.6-6-2.7-10.2-6.5
			c-1.4-1.3-2.5-2.6-3.5-4.1c-4.7-6.9-5.4-15-5.4-21.3l0,0l19-1.1l19,1.1C45.1,30.2,44.5,38.2,39.7,45.2L39.7,45.2z M8.1,7.7
			c3.5-0.4,11.5-1.2,18-1.2c6.5,0,14.5,0.8,18,1.2l1,13.9h-19h-19L8.1,7.7L8.1,7.7z M47,6.1L46.2,6c-0.1,0-11.3-1.4-20.1-1.4
			c0,0,0,0,0,0c0,0,0,0,0,0C17.3,4.6,6.1,6,6,6L5.2,6.1v15.5h0v2.2c0,6.5,0.6,15,5.7,22.4c1,1.5,2.2,2.9,3.6,4.3l0,0c0,0,0,0,0,0
			c2.7,2.6,6.4,5.1,11.6,8v0c0,0,0,0,0,0c0,0,0,0,0,0v0c5.2-2.9,8.8-5.4,11.6-8c0,0,0,0,0,0v0c1.4-1.4,2.6-2.8,3.6-4.3
			c5.1-7.4,5.7-15.9,5.7-22.4v-0.3l0,0V6.1L47,6.1z"/>
	</g>
	<g>
		<path class="st0" d="M77.1,21.7l-1.9,0.1L75.1,21l1-0.2v-5.7c0-1-0.5-1.5-1.3-1.5c-0.6,0-1.4,0.4-2.1,0.9l-0.6,0.4v5.9l1.1,0.2
			l-0.1,0.7l-1.9-0.1l-2.1,0.1L69,21l1.2-0.2V8.6l-0.7,0.1l-4.1-0.1v12.1l2.3,0.3l-0.1,0.7l-3.2-0.1L61,21.8L60.9,21l2.4-0.3V8.7
			l-3,0.1l-0.9,2.5h-0.8V7.7l5.7,0l4.9,0l2.1-0.2h0.7v6.5L75,12c2.6,0,3,1,3,3.5v5.3l1.5,0.2l-0.1,0.7L77.1,21.7z"/>
		<path class="st0" d="M82.3,16.6c0,2.3,1.2,3.9,3.3,3.9c0.8,0,1.8-0.4,2.5-0.8l0.3,0.8c-1,0.7-2.2,1.2-3.5,1.6
			c-2.4,0-4.6-1.7-4.6-4.9c0-3,1.8-4.5,4.5-5.1c2.6,0,3.5,1.7,3.5,3.8v0.8H82.3z M86.3,15.6c0-1.5-0.3-2.6-1.8-2.6
			c-1.2,0-2,1.1-2.2,2.8L86.3,15.6z"/>
		<path class="st0" d="M102.2,8.4l0.1-0.7l2.6,0.1l2.3-0.1l0.1,0.7l-1.7,0.3v8.2c0,2.6-1.1,4.3-5,5.3c-3.9,0-5.3-2.1-5.3-5.3V8.7
			l-1.8-0.3l0.1-0.7l2.8,0.1L99,7.7l0.1,0.7l-1.7,0.3v8.4c0,2.5,1.1,3.9,3.3,3.9c2.1,0,3.2-1.4,3.2-4V8.7L102.2,8.4z"/>
		<path class="st0" d="M110,21.7l-2.3,0.1l-0.1-0.7l1.4-0.2v-7.3l-1.4,0.1l-0.1-0.7l2.4-0.6l0.9-0.1l0.1,1.7l3-1.9
			c2.6,0,3,0.9,3,3.3v5.6l1.5,0.2l-0.1,0.7l-2.3-0.1l-1.9,0.1l-0.1-0.7l1-0.2v-5.7c0-1-0.5-1.5-1.3-1.5c-0.7,0-1.4,0.4-2.1,0.9
			l-0.6,0.4v5.9L112,21l-0.1,0.7L110,21.7z"/>
		<path class="st0" d="M121.5,21.7l-2.3,0.1l-0.1-0.7l1.4-0.2v-7.3l-1.4,0.1L119,13l2.4-0.6l1-0.1v8.6l1.5,0.2l-0.1,0.7L121.5,21.7z
			 M120.5,7.9l1.4-0.1l0.6,0.1l0.1,1.1l-0.2,1l-1.4,0.1l-0.5-0.1l-0.1-1.1L120.5,7.9z"/>
		<path class="st0" d="M129.5,20.4l2.4-7.2L131,13l0.1-0.7l1.8,0.1l1.7-0.1l0.1,0.7l-1.3,0.2l-3.3,8.2l-1.5,0.6l-3.5-8.8l-1.2-0.2
			l0.1-0.7l2.3,0.1l2.1-0.1l0.1,0.7l-1.3,0.2l2.2,5.9L129.5,20.4z"/>
		<path class="st0" d="M136.6,16.6c0,2.3,1.2,3.9,3.3,3.9c0.8,0,1.8-0.4,2.5-0.8l0.3,0.8c-1,0.7-2.2,1.2-3.5,1.6
			c-2.4,0-4.6-1.7-4.6-4.9c0-3,1.8-4.5,4.5-5.1c2.6,0,3.5,1.7,3.5,3.8v0.8H136.6z M140.6,15.6c0-1.5-0.3-2.6-1.8-2.6
			c-1.2,0-2,1.1-2.2,2.8L140.6,15.6z"/>
		<path class="st0" d="M147.1,14.9l2.3-2.8h1.6v2h-1.5c-0.5,0.1-1.4,0.8-1.9,1.4l-0.4,0.5v4.8l2.1,0.2l-0.1,0.8l-2.9-0.1l-2.2,0.1
			L144,21l1.4-0.2v-7.3l-1.4,0.1l-0.1-0.7l2.4-0.6l0.8-0.1L147.1,14.9z"/>
		<path class="st0" d="M157.3,13.4c-0.2-0.1-0.8-0.4-1.5-0.4c-0.8,0-1.5,0.4-1.5,1.2c0,0.6,0.5,1,1.4,1.5l1.5,0.8
			c1.3,0.7,1.9,1.4,1.9,2.6c0,1.8-1.5,2.5-3.8,3c-1.2,0-2.5-0.6-3-0.9l-0.4-2.3h1.3l0.7,1.7c0.4,0.3,1,0.5,1.6,0.5
			c1.1,0,1.6-0.7,1.6-1.5c0-0.8-0.4-1.1-1.5-1.7l-1.6-0.8c-0.9-0.4-1.7-1.2-1.7-2.3c0-1.4,1.3-2.2,3.6-2.7c1.1,0,2.2,0.5,2.8,0.9v2
			h-1.1L157.3,13.4z"/>
		<path class="st0" d="M162.9,21.7l-2.3,0.1l-0.1-0.7l1.4-0.2v-7.3l-1.4,0.1l-0.1-0.7l2.4-0.6l1-0.1v8.6l1.5,0.2l-0.1,0.7
			L162.9,21.7z M161.9,7.9l1.4-0.1l0.6,0.1L164,9l-0.2,1l-1.4,0.1l-0.5-0.1l-0.1-1.1L161.9,7.9z"/>
		<path class="st0" d="M172.8,26.4v-2h1.7l2-3l-0.8,0.2l-3.4-8.4h-3v6.1c0,0.6,0.2,1.2,1.1,1.2c0.6,0,1.2-0.3,1.8-0.6l0.3,0.7
			l-2.5,1.4c-2.2,0-2.5-0.8-2.5-2.6v-6h-1.9v-0.3l0.7-0.7h1.3v-1.3l1.3-1.3h0.5v2.5h6.3l0.1,0.7l-1.3,0.2l2.2,5.9l0.2,1.4l2.5-7.2
			l-0.9-0.2l0.1-0.7l1.8,0.1l1.7-0.1l0.1,0.7l-1.3,0.2l-3.2,8.2l-2.2,5H172.8z"/>
		<path class="st0" d="M195.1,16.8c0,3-1.8,4.7-4.9,5.2c-2.7,0-4.5-2.1-4.5-4.8c0-3,1.8-4.7,4.9-5.2C193.3,12,195.1,14.1,195.1,16.8
			z M190.7,21c1.6,0,2.4-1.6,2.4-3.8c0-2.5-1.2-4.2-3-4.2c-1.6,0-2.4,1.6-2.4,3.8C187.7,19.1,188.9,21,190.7,21z"/>
		<path class="st0" d="M199.6,12.5h2.5v0.9h-2.5v7.4l2.3,0.1l-0.1,0.8l-3.1-0.1l-2.3,0.1l-0.1-0.7l1.4-0.2v-7.4h-1.8v-0.3l0.6-0.7
			h1.2v-0.2c0-1.2,0.4-2,1.1-2.8l1.7-1.9h2.5v1.6h-2.6L200,9.7c-0.3,0.4-0.4,1-0.4,2.3V12.5z"/>
		<path class="st0" d="M217.4,21.8l-3.2-0.1l-3.4,0.1l-0.1-0.7l2.4-0.3V8.7l-3,0l-0.9,2.5h-0.8V7.7l5.7,0.1l5.8-0.1v3.5h-0.8
			l-0.9-2.5l-3,0v12.1l2.3,0.3L217.4,21.8z"/>
		<path class="st0" d="M220.9,16.6c0,2.3,1.2,3.9,3.3,3.9c0.8,0,1.8-0.4,2.5-0.8l0.3,0.8c-1,0.7-2.2,1.2-3.5,1.6
			c-2.4,0-4.6-1.7-4.6-4.9c0-3,1.8-4.5,4.5-5.1c2.6,0,3.5,1.7,3.5,3.8v0.8H220.9z M225,15.6c0-1.5-0.3-2.6-1.8-2.6
			c-1.2,0-2,1.1-2.2,2.8L225,15.6z"/>
		<path class="st0" d="M231.6,21l-0.1,0.7l-1.6-0.1l-2.1,0.1l-0.1-0.7l1.4-0.2l3-3.6l-2.9-4L228,13l0.1-0.7l2.3,0.1l1.9-0.1l0.1,0.7
			l-0.8,0.2l1.5,2.2l0.2,0.5l1.9-2.7l-1-0.2l0.1-0.7l1.6,0.1l2.1-0.1L238,13l-1.4,0.2l-2.6,3.2l3.1,4.4l1.2,0.2l-0.1,0.7l-2.3-0.1
			l-1.9,0.1l-0.1-0.7l0.8-0.2l-1.8-2.6l-0.2-0.5l-2.1,3L231.6,21z"/>
		<path class="st0" d="M242.9,12c2.5,0,3.2,0.6,3.2,3.2v3.9c0,0.9,0.1,1.2,0.3,1.5h1l0.1,0.7l-2.6,0.5l-0.6-1.5l-2.4,1.7
			c-1.7,0-2.9-1-2.9-2.6c0-0.7,0.3-1.2,0.7-1.8l4.5-1.5v-1c0-1.2-0.1-1.9-1.2-1.9c-0.5,0-1.2,0.2-1.6,0.4l-0.3,1.6h-1.7v-1.5
			L242.9,12z M244.2,16.9l-2.9,1.2c-0.3,0.3-0.4,0.7-0.4,1.1c0,1,0.6,1.4,1.2,1.4c0.6,0,1-0.3,1.3-0.5l0.8-0.6V16.9z"/>
		<path class="st0" d="M253.7,13.4c-0.2-0.1-0.8-0.4-1.5-0.4c-0.8,0-1.5,0.4-1.5,1.2c0,0.6,0.5,1,1.4,1.5l1.5,0.8
			c1.3,0.7,1.9,1.4,1.9,2.6c0,1.8-1.5,2.5-3.8,3c-1.2,0-2.5-0.6-3-0.9l-0.4-2.3h1.3l0.7,1.7c0.4,0.3,1,0.5,1.6,0.5
			c1.1,0,1.6-0.7,1.6-1.5c0-0.8-0.4-1.1-1.5-1.7l-1.6-0.8c-0.9-0.4-1.7-1.2-1.7-2.3c0-1.4,1.3-2.2,3.6-2.7c1.1,0,2.2,0.5,2.8,0.9v2
			h-1.1L253.7,13.4z"/>
		<path class="st0" d="M265.6,12c2.5,0,3.2,0.6,3.2,3.2v3.9c0,0.9,0.1,1.2,0.3,1.5h1l0.1,0.7l-2.6,0.5l-0.6-1.5l-2.4,1.7
			c-1.7,0-2.9-1-2.9-2.6c0-0.7,0.3-1.2,0.7-1.8l4.5-1.5v-1c0-1.2-0.1-1.9-1.2-1.9c-0.5,0-1.2,0.2-1.6,0.4l-0.3,1.6H262v-1.5
			L265.6,12z M266.8,16.9l-2.9,1.2c-0.3,0.3-0.4,0.7-0.4,1.1c0,1,0.6,1.4,1.2,1.4c0.6,0,1-0.3,1.3-0.5l0.8-0.6V16.9z"/>
		<path class="st0" d="M270.1,13.5v-0.3l0.7-0.7h1.3v-1.3l1.3-1.3h0.5v2.7h3v0.9h-3v5.9c0,0.6,0.2,1.2,1.1,1.2c0.6,0,1-0.2,1.6-0.5
			l0.3,0.7l-2.3,1.3c-2.2,0-2.5-0.8-2.5-2.6v-6H270.1z"/>
		<path class="st0" d="M285.3,17l-1.3,3.7l1.7,0.3l-0.1,0.7l-2.4-0.1l-2.1,0.1L281,21l1.6-0.2l5-13l1.2-0.3l5.2,13.3l1.6,0.2
			l-0.1,0.7l-2.8-0.1l-2.6,0.1l-0.1-0.7l1.7-0.3l-1.4-3.7H285.3z M288,10.8l-0.1-1.1l-2.2,6.4h4.3L288,10.8z"/>
		<path class="st0" d="M304,19.1c0,0.9,0.1,1.2,0.2,1.5h1l0.1,0.7l-2.6,0.5l-0.6-1.6l-2.9,1.8c-2.6,0-3.1-0.9-3.1-3.3v-5.2l-1.4,0.1
			l-0.1-0.8l2.4-0.5l1-0.1v6.7c0,1,0.4,1.5,1.4,1.5c0.6,0,1.4-0.5,2.2-1l0.4-0.3v-5.6l-1.2,0.1l-0.1-0.8l2.2-0.5l1-0.1V19.1z"/>
		<path class="st0" d="M311.7,13.4c-0.2-0.1-0.8-0.4-1.5-0.4c-0.8,0-1.5,0.4-1.5,1.2c0,0.6,0.5,1,1.4,1.5l1.5,0.8
			c1.3,0.7,1.9,1.4,1.9,2.6c0,1.8-1.5,2.5-3.8,3c-1.2,0-2.5-0.6-3-0.9l-0.4-2.3h1.3l0.7,1.7c0.4,0.3,1,0.5,1.6,0.5
			c1.1,0,1.6-0.7,1.6-1.5c0-0.8-0.4-1.1-1.5-1.7l-1.6-0.8c-0.9-0.4-1.7-1.2-1.7-2.3c0-1.4,1.3-2.2,3.6-2.7c1.1,0,2.2,0.5,2.8,0.9v2
			h-1.1L311.7,13.4z"/>
		<path class="st0" d="M314.1,13.5v-0.3l0.7-0.7h1.3v-1.3l1.3-1.3h0.5v2.7h3v0.9h-3v5.9c0,0.6,0.2,1.2,1.1,1.2c0.6,0,1-0.2,1.6-0.5
			l0.3,0.7l-2.3,1.3c-2.2,0-2.5-0.8-2.5-2.6v-6H314.1z"/>
		<path class="st0" d="M324.5,21.7l-2.3,0.1l-0.1-0.7l1.4-0.2v-7.3l-1.4,0.1L322,13l2.4-0.6l1-0.1v8.6l1.5,0.2l-0.1,0.7L324.5,21.7z
			 M323.5,7.9l1.4-0.1l0.6,0.1l0.1,1.1l-0.2,1l-1.4,0.1l-0.5-0.1l-0.1-1.1L323.5,7.9z"/>
		<path class="st0" d="M330.2,21.7l-2.3,0.1l-0.1-0.7l1.4-0.2v-7.3l-1.4,0.1l-0.1-0.7l2.4-0.6l0.9-0.1L331,14l3-1.9
			c2.6,0,3,0.9,3,3.3v5.6l1.5,0.2l-0.1,0.7l-2.3-0.1l-1.9,0.1l-0.1-0.7l1-0.2v-5.7c0-1-0.5-1.5-1.3-1.5c-0.7,0-1.4,0.4-2.1,0.9
			l-0.6,0.4v5.9l1.1,0.2l-0.1,0.7L330.2,21.7z"/>
	</g>
</g>
</svg>
